<?xml version="1.0" standalone="no"?>
<!DOCTYPE svg PUBLIC "-//W3C//DTD SVG 1.1//EN" "http://www.w3.org/Graphics/SVG/1.1/DTD/svg11.dtd" >
<svg xmlns="http://www.w3.org/2000/svg">
<metadata>Generated by IcoMoon</metadata>
<defs>
<font id="icomoon" horiz-adv-x="1024">
<font-face units-per-em="1024" ascent="960" descent="-64" />
<missing-glyph horiz-adv-x="1024" />
<glyph unicode="&#x20;" horiz-adv-x="512" d="" />
<glyph unicode="&#xe900;" glyph-name="last" d="M804.571 13.447v0c-40.395 0-73.143 32.747-73.143 73.143v731.429c0 40.396 32.748 73.143 73.143 73.143s73.143-32.747 73.143-73.143v-731.429c0-40.396-32.748-73.143-73.143-73.143v0zM706.815 393.656l-440.991-418.266c-65.603-62.223-119.537-39.61-119.537 51.386v846.525c0 91.196 53.519 114.003 119.537 51.386l440.991-418.266c32.806-31.116 32.831-81.626 0-112.765z" />
<glyph unicode="&#xe901;" glyph-name="phone" d="M56.889 960c-31.46 0-56.889-25.429-56.889-56.889 0-534.073 433.038-967.111 967.111-967.111 31.46 0 56.889 25.429 56.889 56.889v199.111c0 31.403-25.429 56.832-56.889 56.832-70.997 0-139.264 11.435-203.207 32.37-5.689 1.82-11.662 2.731-17.579 2.731-14.507 0-29.070-5.575-40.164-16.668l-125.212-125.326c-161.109 81.92-292.807 213.618-374.841 374.67l125.156 125.554c15.644 15.588 20.252 38.059 13.938 57.742-20.935 64-32.37 132.267-32.37 203.207 0 31.46-25.429 56.889-56.832 56.889h-199.111z" />
<glyph unicode="&#xe902;" glyph-name="first" d="M219.429 886.857v0c40.396 0 73.143-32.747 73.143-73.143v-731.429c0-40.396-32.747-73.143-73.143-73.143s-73.143 32.747-73.143 73.143v731.429c0 40.396 32.747 73.143 73.143 73.143v0zM317.185 506.648l440.992 418.266c65.603 62.223 119.537 39.61 119.537-51.386v-846.525c0-91.196-53.519-114.003-119.537-51.386l-440.992 418.266c-32.806 31.116-32.831 81.626 0 112.765z" />
<glyph unicode="&#xe903;" glyph-name="back" d="M979.183 441.533c0 12.609-3.667 22.966-11 31.072s-16.704 12.159-28.111 12.159h-765.111l166.222 186.434c19.556 19.814 19.963 40.079 1.222 60.794s-37.074 20.265-55-1.351l-234.667-259.386c-4.889-3.603-8.148-8.106-9.778-13.51-3.259-10.808-3.259-21.616 0-32.423 1.63-5.404 4.889-9.907 9.778-13.51l234.667-259.386c17.926-21.616 36.259-22.066 55-1.351s18.333 40.979-1.222 60.794l-166.222 186.434h765.111c11.407 0 20.778 4.053 28.111 12.159s11 18.463 11 31.072v0z" />
<glyph unicode="&#xe904;" d="M12.563 937.423h996.324v-996.324h-996.324v996.324z" />
<glyph unicode="&#xe905;" d="M594.163 526.030c2.892-2.892 6.108-4.426 9.649-4.603s6.619 1.042 9.235 3.658l175.464 175.464 4.635-80.875c0.059-9.029 4.613-13.769 13.662-14.222s13.15 3.855 12.303 12.923l-5.669 113.302c0.295 1.947 0.010 3.728-0.856 5.341-1.731 3.226-4.21 5.705-7.436 7.436-1.613 0.866-3.393 1.151-5.341 0.856l-113.302 5.669c-9.068 0.846-13.376-3.255-12.923-12.303s5.193-13.602 14.222-13.662l80.875-4.635-175.464-175.464c-2.616-2.616-3.836-5.694-3.658-9.235s1.712-6.757 4.603-9.649v0z" />
<glyph unicode="&#xe906;" d="M429.436 351.251c-2.892 2.892-6.108 4.426-9.649 4.603s-6.619-1.042-9.235-3.658l-175.464-175.464-4.635 80.875c-0.059 9.029-4.613 13.769-13.662 14.222s-13.15-3.855-12.303-12.923l5.669-113.302c-0.295-1.947-0.010-3.728 0.856-5.341 1.731-3.226 4.21-5.705 7.436-7.436 1.613-0.866 3.393-1.151 5.341-0.856l113.302-5.669c9.068-0.846 13.376 3.255 12.923 12.303s-5.193 13.602-14.222 13.662l-80.875 4.635 175.464 175.464c2.616 2.616 3.836 5.694 3.658 9.235s-1.712 6.757-4.603 9.649v0z" />
<glyph unicode="&#xe907;" d="M600.545 353.201c-2.892-2.892-4.426-6.108-4.603-9.649s1.042-6.619 3.658-9.235l175.464-175.464-80.875-4.635c-9.029-0.059-13.769-4.613-14.222-13.662s3.855-13.15 12.923-12.303l113.302 5.669c1.947-0.295 3.728-0.010 5.341 0.856 3.226 1.731 5.705 4.21 7.436 7.436 0.866 1.613 1.151 3.393 0.856 5.341l5.669 113.302c0.846 9.068-3.255 13.376-12.303 12.923s-13.602-5.193-13.662-14.222l-4.635-80.875-175.464 175.464c-2.616 2.616-5.694 3.836-9.235 3.658s-6.757-1.712-9.649-4.603v0z" />
<glyph unicode="&#xe908;" d="M420.766 525.080c2.892 2.892 4.426 6.108 4.603 9.649s-1.042 6.619-3.658 9.235l-175.464 175.464 80.875 4.635c9.029 0.059 13.769 4.613 14.222 13.662s-3.855 13.15-12.923 12.303l-113.302-5.669c-1.947 0.295-3.728 0.010-5.341-0.856-3.226-1.731-5.705-4.21-7.436-7.436-0.866-1.613-1.151-3.393-0.856-5.341l-5.669-113.302c-0.846-9.068 3.255-13.376 12.303-12.923s13.602 5.193 13.662 14.222l4.635 80.875 175.464-175.464c2.616-2.616 5.694-3.836 9.235-3.658s6.757 1.712 9.649 4.603v0z" />
<glyph unicode="&#xe909;" d="M128 960h768c70.692 0 128-57.308 128-128v-768c0-70.692-57.308-128-128-128h-768c-70.692 0-128 57.308-128 128v768c0 70.692 57.308 128 128 128z" />
<glyph unicode="&#xe90a;" d="M399.529 339.687l407.294 407.294 90.51-90.51-497.803-497.803-271.529 271.529 90.51 90.51 181.019-181.019z" />
<glyph unicode="&#xe90b;" d="M1024 448c0-282.77-229.23-512-512-512s-512 229.23-512 512c0 282.77 229.23 512 512 512s512-229.23 512-512z" />
<glyph unicode="&#xe90c;" d="M704 448c0-106.039-85.961-192-192-192s-192 85.961-192 192c0 106.039 85.961 192 192 192s192-85.961 192-192z" />
<glyph unicode="&#xe90d;" glyph-name="checkbox" d="M128 960h768c70.692 0 128-57.308 128-128v-768c0-70.692-57.308-128-128-128h-768c-70.692 0-128 57.308-128 128v768c0 70.692 57.308 128 128 128z" />
<glyph unicode="&#xe90e;" glyph-name="radio" d="M967.111 448c0-251.351-203.76-455.111-455.111-455.111s-455.111 203.76-455.111 455.111c0 251.351 203.76 455.111 455.111 455.111s455.111-203.76 455.111-455.111z" />
<glyph unicode="&#xe90f;" glyph-name="nav-robot" d="M755.561 64.476h-487.122c-33.621 0-60.885-28.607-60.885-63.914s27.258-63.92 60.885-63.92h487.122c33.638 0 60.89 28.612 60.89 63.92s-27.252 63.914-60.89 63.914v0zM816.451 959.357h-608.903c-67.259 0-121.786-57.248-121.786-127.845v-575.259c0-70.614 54.527-127.851 121.786-127.851h608.903c67.259 0 121.786 57.237 121.786 127.851v575.259c0 70.597-54.527 127.845-121.786 127.845zM311.415 754.808c41.546 0 75.219-34.349 75.219-76.704s-33.673-76.698-75.219-76.698c-41.541 0-75.214 34.331-75.214 76.698 0 42.354 33.673 76.704 75.214 76.704zM737.652 345.734h-451.305c-27.692 0-50.141 22.892-50.141 51.13s22.449 51.13 50.141 51.13h451.305c13.299 0.002 26.053-5.385 35.456-14.974s14.686-22.595 14.684-36.156c0.005-13.562-5.277-26.57-14.681-36.159s-22.16-14.975-35.46-14.97v0zM712.585 601.407c-41.541 0-75.225 34.331-75.225 76.698 0 42.36 33.684 76.704 75.225 76.704 41.546 0 75.214-34.349 75.214-76.704s-33.667-76.698-75.214-76.698z" />
<glyph unicode="&#xe910;" glyph-name="nav-customer" d="M290.13 483.815c30.835-18.732 74.004-31.22 111.006-31.22s74.004 12.488 104.839 31.22c67.837 37.464 117.173 106.149 117.173 193.566 0 124.881-98.672 224.786-222.011 224.786s-222.011-99.905-222.011-224.786c0-81.173 43.169-156.101 111.006-193.566zM1024 21.755c-6.167 112.393-61.67 224.786-111.006 268.494s-61.67 37.464-61.67 37.464c-18.501-12.488-43.169-18.732-74.004-18.732s-55.503 6.244-74.004 24.976c-6.167-6.244-18.501-6.244-24.668-12.488-24.668 31.22-55.503 68.685-80.171 93.661-74.004 62.44-92.505 56.196-92.505 56.196-30.835-24.976-67.837-31.22-104.839-31.22-43.169 0-80.171 12.488-111.006 31.22-135.673-62.44-240.512-237.274-252.846-449.572h986.716zM401.136 71.708l-55.503 56.196 49.336 256.006-24.668 37.464c6.167 12.488 55.503 12.488 67.837 0l-30.835-37.464 49.336-256.006-55.503-56.196zM758.82 290.249c6.167 6.244 37.002 6.244 43.169 0l-18.501-24.976 30.835-174.833-37.002-37.464-18.501 18.732c0 18.732-6.167 31.22-12.334 49.952l24.668 143.613-12.334 24.976zM703.317 333.958c24.668-12.488 49.336-24.976 74.004-24.976s49.336 6.244 74.004 18.732c43.169 24.976 80.171 74.929 80.171 131.125 0 81.173-67.837 149.857-148.007 149.857s-148.007-68.685-148.007-149.857c-6.167-49.952 24.668-99.905 67.837-124.881v0z" />
<glyph unicode="&#xe911;" glyph-name="control" d="M51.2 960h921.6c28.277 0 51.2-22.923 51.2-51.2v-921.6c0-28.277-22.923-51.2-51.2-51.2h-921.6c-28.277 0-51.2 22.923-51.2 51.2v921.6c0 28.277 22.923 51.2 51.2 51.2v0zM102.4 755.2v0c-28.277 0-51.2-22.923-51.2-51.2v-665.6c0-28.277 22.923-51.2 51.2-51.2h819.2c28.277 0 51.2 22.923 51.2 51.2v665.6c0 28.277-22.923 51.2-51.2 51.2h-819.2zM102.4 857.6v-51.2h307.2v51.2h-307.2zM153.6 704h102.4v-102.4h-102.4v102.4zM307.2 704h563.2v-102.4h-563.2v102.4zM153.6 550.4h716.8v-512h-716.8v512z" />
<glyph unicode="&#xe912;" glyph-name="horn" d="M606.815 559.59l1.562-37.197-0.184 37.197zM546.471 927.671c-13.751 6.521-30.050 4.721-42.009-4.567-0.55-0.462-58.719-45.803-122.901-92.264-111.707-80.781-144.256-94.24-150.833-96.372h-124.305c-32.693 0-61.357-13.305-80.817-37.524-16.75-20.792-25.607-48.064-25.607-78.847v-340.195c0-30.783 8.857-58.055 25.607-78.847 19.46-24.218 48.125-37.524 80.817-37.524h124.305c6.576-2.132 39.124-15.592 150.833-96.372 64.182-46.461 122.351-91.802 122.901-92.264 11.959-9.288 28.258-11.088 42.009-4.567 13.706 6.455 22.418 20.091 22.418 35.088v889.166c-0.001 14.997-8.713 28.633-22.418 35.088zM1024 466.775c0 0.002 0 0.005 0 0.006h-0.004c-0.075 50.153-15.869 98.993-45.633 141.218-29.124 41.252-70.312 74.571-119.091 96.27-21.295 9.478-47.339 1.995-58.144-16.745-10.804-18.784-2.277-41.661 19.029-51.138 72.328-32.201 117.239-97.238 117.312-169.789-0.074-72.551-44.984-137.588-117.312-169.789-21.307-9.477-29.833-32.354-19.029-51.138 10.803-18.74 36.849-26.223 58.144-16.745 48.779 21.699 89.967 55.018 119.091 96.27 29.763 42.226 45.558 91.065 45.633 141.218h0.004c0 0.002 0 0.005 0 0.006 0 0.059-0.001 0.119-0.001 0.177-0.001 0.059 0.001 0.119 0.001 0.177zM834.348 448.209c-1.226 31.733-11.682 61.534-29.213 87.654-6.237 13.864-22.177 23.727-40.866 23.727-24.119 0-43.677-16.425-43.677-36.69 0-10.398 5.159-19.778 13.431-26.454 7.847-14.958 12.568-31.292 13.478-48.446-0.91-17.154-5.63-33.488-13.478-48.446-8.272-6.676-13.431-16.056-13.431-26.454 0-20.264 19.558-36.69 43.677-36.69 18.688 0 34.629 9.863 40.866 23.727 17.53 26.12 27.987 55.92 29.213 87.654h0.022c-0.003 0.070-0.009 0.139-0.012 0.209 0.003 0.070 0.009 0.139 0.012 0.209h-0.022z" />
<glyph unicode="&#xe913;" glyph-name="male" horiz-adv-x="956" d="M407.499-10.324c-194.894 0-352.886 158.351-352.886 353.686s157.993 353.686 352.886 353.686c194.894 0 352.886-158.351 352.886-353.686s-157.993-353.686-352.886-353.686zM407.665 135.993c114.176 0 206.735 92.768 206.735 207.203s-92.558 207.203-206.735 207.203c-114.176 0-206.735-92.768-206.735-207.203s92.558-207.203 206.735-207.203zM550.468 604.637l193.087 193.087c26.66 26.66 69.884 26.66 96.544 0s26.66-69.884 0-96.544l-193.087-193.087c-26.66-26.66-69.884-26.66-96.544 0s-26.66 69.884 0 96.544zM935.832 899.444l-47.14-265.477-218.337 218.337z" />
<glyph unicode="&#xe914;" glyph-name="female" horiz-adv-x="751" d="M352.886 252.627c-194.894 0-352.886 158.351-352.886 353.686s157.993 353.686 352.886 353.686c194.894 0 352.886-158.351 352.886-353.686s-157.993-353.686-352.886-353.686zM353.041 389.47c119.574 0 216.507 97.153 216.507 216.998s-96.934 216.998-216.507 216.998c-119.574 0-216.507-97.153-216.507-216.998s96.934-216.998 216.507-216.998zM341.333 345.6c37.703 0 68.267-30.564 68.267-68.267v-273.067c0-37.703-30.564-68.267-68.267-68.267s-68.267 30.564-68.267 68.267v273.067c0 37.703 30.564 68.267 68.267 68.267zM204.8 209.067h273.067c37.703 0 68.267-30.564 68.267-68.267s-30.564-68.267-68.267-68.267h-273.067c-37.703 0-68.267 30.564-68.267 68.267s30.564 68.267 68.267 68.267z" />
<glyph unicode="&#xe915;" glyph-name="prev" d="M244.043 506.648c-32.831-31.139-32.806-81.649 0-112.765l440.992-418.266c66.019-62.617 119.537-39.81 119.537 51.386v846.525c0 90.996-53.934 113.609-119.537 51.386l-440.992-418.266z" />
<glyph unicode="&#xe916;" glyph-name="nav-home" d="M512 930.139l-511.652-482.139h133.475v-395.075c0-43.897 44.492-87.794 88.983-87.794h133.475c26.695 0 44.492 17.559 44.492 43.897v219.486c0 26.338 17.797 43.897 44.492 43.897h133.475c26.695 0 44.492-17.559 44.492-43.897v-219.486c0-26.338 17.797-43.897 44.492-43.897h133.475c44.492 0 88.983 43.897 88.983 87.794v395.075h133.475l-511.652 482.139z" />
<glyph unicode="&#xe918;" d="M12.563 937.423h996.324v-996.324h-996.324v996.324z" />
<glyph unicode="&#xe919;" d="M809.429 741.296c-2.892 2.892-6.108 4.426-9.649 4.603s-6.619-1.042-9.235-3.658l-175.464-175.464-4.635 80.875c-0.059 9.029-4.613 13.769-13.662 14.222s-13.15-3.855-12.303-12.923l5.669-113.302c-0.295-1.947-0.010-3.728 0.856-5.341 1.731-3.226 4.21-5.705 7.436-7.436 1.613-0.866 3.393-1.151 5.341-0.856l113.302-5.669c9.068-0.846 13.376 3.255 12.923 12.303s-5.193 13.602-14.222 13.662l-80.875 4.635 175.464 175.464c2.616 2.616 3.836 5.694 3.658 9.235s-1.712 6.757-4.603 9.649v0z" />
<glyph unicode="&#xe91a;" d="M214.17 135.985c2.892-2.892 6.108-4.426 9.649-4.603s6.619 1.042 9.235 3.658l175.464 175.464 4.635-80.875c0.059-9.029 4.613-13.769 13.662-14.222s13.15 3.855 12.303 12.923l-5.669 113.302c0.295 1.947 0.010 3.728-0.856 5.341-1.731 3.226-4.21 5.705-7.436 7.436-1.613 0.866-3.393 1.151-5.341 0.856l-113.302 5.669c-9.068 0.846-13.376-3.255-12.923-12.303s5.193-13.602 14.222-13.662l80.875-4.635-175.464-175.464c-2.616-2.616-3.836-5.694-3.658-9.235s1.712-6.757 4.603-9.649v0z" />
<glyph unicode="&#xe91b;" d="M815.811 137.935c2.892 2.892 4.426 6.108 4.603 9.649s-1.042 6.619-3.658 9.235l-175.464 175.464 80.875 4.635c9.029 0.059 13.769 4.613 14.222 13.662s-3.855 13.15-12.923 12.303l-113.302-5.669c-1.947 0.295-3.728 0.010-5.341-0.856-3.226-1.731-5.705-4.21-7.436-7.436-0.866-1.613-1.151-3.393-0.856-5.341l-5.669-113.302c-0.846-9.068 3.255-13.376 12.303-12.923s13.602 5.193 13.662 14.222l4.635 80.875 175.464-175.464c2.616-2.616 5.694-3.836 9.235-3.658s6.757 1.712 9.649 4.603v0z" />
<glyph unicode="&#xe91c;" d="M205.499 740.346c-2.892-2.892-4.426-6.108-4.603-9.649s1.042-6.619 3.658-9.235l175.464-175.464-80.875-4.635c-9.029-0.059-13.769-4.613-14.222-13.662s3.855-13.15 12.923-12.303l113.302 5.669c1.947-0.295 3.728-0.010 5.341 0.856 3.226 1.731 5.705 4.21 7.436 7.436 0.866 1.613 1.151 3.393 0.856 5.341l5.669 113.302c0.846 9.068-3.255 13.376-12.303 12.923s-13.602-5.193-13.662-14.222l-4.635-80.875-175.464 175.464c-2.616 2.616-5.694 3.836-9.235 3.658s-6.757-1.712-9.649-4.603v0z" />
<glyph unicode="&#xe91d;" glyph-name="nav-setting" d="M1011.388 550.424c-2.435 20.044-14.609 37.583-36.523 42.594h-2.435c-43.828 10.022-75.481 35.078-99.83 77.672-21.914 37.583-29.218 85.189-14.609 127.783 7.305 17.539 2.435 40.089-14.609 55.122-46.262 45.1-102.264 80.178-165.571 102.728-17.044 7.517-36.523 2.506-53.567-15.033-26.784-35.078-68.176-52.617-114.439-52.617-41.393 0-80.351 20.044-114.439 55.122-19.479 20.044-38.958 17.539-53.567 12.528-63.307-27.561-116.874-60.133-163.136-100.222-17.044-12.528-24.349-35.078-17.044-55.122 12.174-47.606 7.305-92.706-14.609-132.795-19.479-35.078-56.002-62.639-99.83-75.167-2.435 0-2.435 0-4.87-2.506-14.609-7.517-24.349-20.044-31.653-37.583v-2.506c-7.305-37.583-9.739-70.156-9.739-102.728s2.435-70.156 9.739-100.222c2.435-20.044 14.609-37.583 36.523-42.594h2.435c43.828-10.022 75.481-35.078 99.83-77.672 21.914-37.583 29.218-85.189 14.609-127.783-7.305-17.539-2.435-40.089 14.609-55.122 46.262-45.1 102.264-80.178 168.006-102.728 2.435 0 4.87-2.506 9.739-2.506h7.305c12.174 0 26.784 5.011 38.958 17.539 26.784 32.572 68.176 52.617 114.439 52.617 41.393 0 80.351-20.044 114.439-55.122 9.739-10.022 21.914-17.539 34.088-17.539 4.87 0 12.174 0 17.044 2.506 63.307 27.561 116.874 60.133 163.136 100.222 17.044 10.022 24.349 35.078 17.044 55.122-12.174 47.606-7.305 92.706 14.609 132.795 19.479 35.078 56.002 62.639 99.83 75.167 2.435 0 2.435 0 4.87 2.506 14.609 7.517 24.349 20.044 31.653 37.583v2.506c7.305 37.583 9.739 70.156 9.739 102.728-2.435 35.078-4.87 70.156-12.174 102.728v0zM509.805 274.813c-94.96 0-170.441 77.672-170.441 175.389s75.481 175.389 170.441 175.389c94.96 0 170.441-77.672 170.441-175.389s-75.481-175.389-170.441-175.389z" />
<glyph unicode="&#xe91e;" glyph-name="next" d="M779.957 393.656c32.831 31.139 32.806 81.649 0 112.765l-440.991 418.266c-66.019 62.617-119.537 39.81-119.537-51.386v-846.525c0-90.996 53.934-113.609 119.537-51.386l440.991 418.266z" />
<glyph unicode="&#xe91f;" glyph-name="download" d="M1020.378 67.88c4.345-17.496 3.44-34.080-2.716-49.753s-15.75-29.524-28.785-41.552c-13.035-12.028-28.966-21.505-47.794-28.431s-39.104-10.388-60.829-10.388c-136.865-0.729-259.247-1.093-367.146-1.093h-369.319c-26.070 0-49.061 4.738-68.976 14.215s-35.846 21.141-47.794 34.991c-11.949 13.851-19.914 28.977-23.897 45.379s-3.44 31.164 1.629 44.286c4.345 10.206 8.69 20.776 13.035 31.711 3.621 9.477 7.966 20.229 13.035 32.258s10.5 24.239 16.293 36.632l41.277 100.6h123.83l-46.708-137.779h699.533l-46.708 137.779h118.399c15.207-37.178 28.966-70.712 41.277-100.6 5.069-13.122 10.138-25.879 15.207-38.272s9.595-23.51 13.578-33.351c3.983-9.841 7.242-18.225 9.776-25.15s3.802-10.753 3.802-11.482v0zM474.002 270.174c-13.759 16.038-29.509 36.085-47.251 60.141s-36.027 48.842-54.855 74.357c-18.828 25.515-37.475 50.665-55.941 75.45s-34.94 46.291-49.424 64.515c-16.656 19.683-23.173 35.903-19.552 48.66s15.931 19.136 36.932 19.136c11.586-0.729 27.156-0.547 46.708 0.547s35.846 1.64 48.88 1.64c14.483 0 23.535 4.374 27.156 13.122s5.431 20.412 5.431 34.991c0 16.038-0.181 33.716-0.543 53.034s-0.543 39.183-0.543 59.595c0 20.412-0.181 40.459-0.543 60.141s-0.543 37.907-0.543 54.674c0 7.29 0.543 14.944 1.629 22.963s3.621 15.309 7.604 21.87c3.983 6.561 9.776 12.028 17.38 16.402s17.923 6.561 30.958 6.561c15.207 0 29.147 0.182 41.82 0.547s27.337 0.547 43.992 0.547c23.897 0 40.010-5.65 48.337-16.949s12.854-29.342 13.578-54.127v-42.646c0-16.767 0.181-34.627 0.543-53.581s0.543-37.907 0.543-56.861v-51.394c0-21.141 2.172-38.090 6.517-50.847s14.121-18.771 29.328-18.042c10.862 0 24.078-0.364 39.647-1.093s29.147-1.093 40.734-1.093c19.552 0 32.044-5.285 37.475-15.855s1.629-24.239-11.405-41.006c-13.759-17.496-29.69-38.636-47.794-63.422s-36.751-50.482-55.941-77.090c-19.19-26.608-38.018-52.487-56.484-77.637s-34.94-46.837-49.424-65.062c-13.035-16.767-25.526-25.332-37.475-25.697s-24.44 7.472-37.475 23.51v0z" />
<glyph unicode="&#xe920;" glyph-name="detail" d="M51.2 857.6h921.6c28.277 0 51.2-22.923 51.2-51.2s-22.923-51.2-51.2-51.2h-921.6c-28.277 0-51.2 22.923-51.2 51.2s22.923 51.2 51.2 51.2zM51.2 499.2h921.6c28.277 0 51.2-22.923 51.2-51.2s-22.923-51.2-51.2-51.2h-921.6c-28.277 0-51.2 22.923-51.2 51.2s22.923 51.2 51.2 51.2zM51.2 140.8h921.6c28.277 0 51.2-22.923 51.2-51.2s-22.923-51.2-51.2-51.2h-921.6c-28.277 0-51.2 22.923-51.2 51.2s22.923 51.2 51.2 51.2z" />
<glyph unicode="&#xe921;" glyph-name="arrow-up" d="M410.059 679.157c56.298 58.146 147.713 58.004 203.874 0l322.708-333.297c101.831-105.172 65.371-190.431-79.918-190.431h-689.453c-145.968 0-182.163 84.831-79.918 190.431l322.708 333.297z" />
<glyph unicode="&#xe922;" glyph-name="arrow-down" d="M410.059 216.843c56.298-58.146 147.713-58.004 203.874 0l322.708 333.297c101.831 105.172 65.371 190.431-79.918 190.431h-689.453c-145.968 0-182.163-84.831-79.918-190.431l322.708-333.297z" />
<glyph unicode="&#xe923;" glyph-name="nav-marketing" d="M38.625 58.572h274.914v431.488l-75.229 51.288-199.685-165.958v-316.818zM378.407 58.572h274.914v428.971l-132.814-109.13-142.1 75.439v-395.28zM718.19 538.325v-479.752h274.914v476.747l-117.357 150.86-157.557-147.854zM84.033 495.473l149.513 122.165 285.626-169.85 338.726 311.604c1.223 1.122 2.224 2.426 3.262 3.675l57.047-56.357 91.873 252.549-263.553-82.934 63.071-62.314c-0.834-0.634-1.724-1.159-2.521-1.883l-297.599-273.785-282.735 168.113-190.269-155.44c-15.717-12.836-17.793-35.665-4.652-50.999s36.53-17.398 52.21-4.544zM986.932 8.805h-949.864c-20.461 0-37.068-16.221-37.068-36.208s16.606-36.208 37.068-36.208h949.864c20.461 0 37.068 16.221 37.068 36.208s-16.606 36.208-37.068 36.208z" />
<glyph unicode="&#xe924;" glyph-name="nav-account" d="M85.333 362.667h284.444c31.419 0 56.889-25.47 56.889-56.889v-284.444c0-31.419-25.47-56.889-56.889-56.889h-284.444c-31.419 0-56.889 25.47-56.889 56.889v284.444c0 31.419 25.47 56.889 56.889 56.889zM85.333 817.778h284.444c31.419 0 56.889-25.47 56.889-56.889v-284.444c0-31.419-25.47-56.889-56.889-56.889h-284.444c-31.419 0-56.889 25.47-56.889 56.889v284.444c0 31.419 25.47 56.889 56.889 56.889zM568.889 931.556h369.778c31.419 0 56.889-25.47 56.889-56.889v-369.778c0-31.419-25.47-56.889-56.889-56.889h-369.778c-31.419 0-56.889 25.47-56.889 56.889v369.778c0 31.419 25.47 56.889 56.889 56.889zM568.889 362.667h284.444c31.419 0 56.889-25.47 56.889-56.889v-284.444c0-31.419-25.47-56.889-56.889-56.889h-284.444c-31.419 0-56.889 25.47-56.889 56.889v284.444c0 31.419 25.47 56.889 56.889 56.889z" />
<glyph unicode="&#xe925;" glyph-name="close" d="M413.709 448l-392.893-392.893c-27.509-27.509-27.413-71.419-0.271-98.562 27.331-27.331 71.27-27.021 98.562 0.271l392.893 392.893 392.893-392.893c27.509-27.509 71.419-27.413 98.562-0.271 27.331 27.331 27.021 71.27-0.271 98.562l-392.893 392.893 392.893 392.893c27.509 27.509 27.413 71.419 0.271 98.562-27.331 27.331-71.27 27.021-98.562-0.271l-392.893-392.893-392.893 392.893c-27.509 27.509-71.419 27.413-98.562 0.271-27.331-27.331-27.021-71.27 0.271-98.562l392.893-392.893z" />
<glyph unicode="&#xe926;" glyph-name="search" d="M732.359 227.641c-159.959-159.959-419.303-159.959-579.262 0s-159.959 419.303 0 579.262c159.959 159.959 419.303 159.959 579.262 0s159.959-419.303 0-579.262zM635.816 324.184c106.639 106.639 106.639 279.535 0 386.175s-279.535 106.639-386.175 0c-106.639-106.639-106.639-279.535 0-386.175s279.535-106.639 386.175 0zM684.088 275.912c26.66 26.66 69.884 26.66 96.544 0l193.087-193.087c26.66-26.66 26.66-69.884 0-96.544s-69.884-26.66-96.544 0l-193.087 193.087c-26.66 26.66-26.66 69.884 0 96.544z" />
</font>
</defs>
</svg>
